<svg width="21" height="25" viewBox="0 0 21 25" fill="none" xmlns="http://www.w3.org/2000/svg">
    <path d="M15.4719 0.012511C15.4188 -0.046864 13.5047 0.0359485 11.8391 1.84376C10.1734 3.65001 10.4297 5.72189 10.4672 5.77501C10.5047 5.82814 12.8422 5.91095 14.3344 3.80939C15.8266 1.70782 15.525 0.0734485 15.4719 0.012511ZM20.65 18.3453C20.575 18.1953 17.0172 16.4172 17.3484 12.9984C17.6797 9.57814 19.9656 8.64064 20.0016 8.53907C20.0375 8.43751 19.0688 7.3047 18.0422 6.73126C17.2885 6.32697 16.4543 6.09534 15.6 6.05314C15.4313 6.04845 14.8453 5.9047 13.6406 6.23439C12.8469 6.45157 11.0578 7.1547 10.5656 7.18282C10.0719 7.21095 8.60313 6.3672 7.02344 6.14376C6.01251 5.94845 4.94063 6.34845 4.17344 6.65626C3.40782 6.96251 1.95157 7.83439 0.932819 10.1516C-0.0859313 12.4672 0.446881 16.1359 0.828131 17.2766C1.20938 18.4156 1.80469 20.2828 2.81719 21.6453C3.71719 23.1828 4.91094 24.25 5.40938 24.6125C5.90782 24.975 7.31407 25.2156 8.28907 24.7172C9.07344 24.2359 10.4891 23.9594 11.0484 23.9797C11.6063 24 12.7063 24.2203 13.8328 24.8219C14.725 25.1297 15.5688 25.0016 16.4141 24.6578C17.2594 24.3125 18.4828 23.0031 19.9109 20.3484C20.4531 19.1141 20.7 18.4469 20.65 18.3453Z" fill="white"/>
    <path d="M15.4719 0.012511C15.4188 -0.046864 13.5047 0.0359485 11.8391 1.84376C10.1734 3.65001 10.4297 5.72189 10.4672 5.77501C10.5047 5.82814 12.8422 5.91095 14.3344 3.80939C15.8266 1.70782 15.525 0.0734485 15.4719 0.012511ZM20.65 18.3453C20.575 18.1953 17.0172 16.4172 17.3484 12.9984C17.6797 9.57814 19.9656 8.64064 20.0016 8.53907C20.0375 8.43751 19.0688 7.3047 18.0422 6.73126C17.2885 6.32697 16.4543 6.09534 15.6 6.05314C15.4313 6.04845 14.8453 5.9047 13.6406 6.23439C12.8469 6.45157 11.0578 7.1547 10.5656 7.18282C10.0719 7.21095 8.60313 6.3672 7.02344 6.14376C6.01251 5.94845 4.94063 6.34845 4.17344 6.65626C3.40782 6.96251 1.95157 7.83439 0.932819 10.1516C-0.0859313 12.4672 0.446881 16.1359 0.828131 17.2766C1.20938 18.4156 1.80469 20.2828 2.81719 21.6453C3.71719 23.1828 4.91094 24.25 5.40938 24.6125C5.90782 24.975 7.31407 25.2156 8.28907 24.7172C9.07344 24.2359 10.4891 23.9594 11.0484 23.9797C11.6063 24 12.7063 24.2203 13.8328 24.8219C14.725 25.1297 15.5688 25.0016 16.4141 24.6578C17.2594 24.3125 18.4828 23.0031 19.9109 20.3484C20.4531 19.1141 20.7 18.4469 20.65 18.3453Z" fill="white"/>
</svg>
