<svg xmlns="http://www.w3.org/2000/svg" width="100%" height="100%" viewBox="0 0 32 32" fit="" preserveAspectRatio="xMidYMid meet" focusable="false">
    <path fill="currentColor" fill-rule="evenodd" d="M26.343 2c1.143 0 2.07.93 2.07 2.075v21.777c0 .572-.464 1.037-1.035 1.037h-1.034v2.074c0 .572-.463 1.037-1.034 1.037h-2.07c-.57 0-1.034-.465-1.034-1.037V26.89H9.792v2.074c0 .572-.463 1.037-1.034 1.037h-2.07c-.57 0-1.034-.465-1.034-1.037V26.89H4.62c-.57 0-1.034-.465-1.034-1.037V4.075C3.586 2.929 4.513 2 5.656 2zM7.206 21.704c-.856 0-1.552.697-1.552 1.556 0 .858.696 1.555 1.552 1.555.857 0 1.552-.697 1.552-1.555 0-.86-.695-1.556-1.552-1.556zm17.588 0c-.857 0-1.552.697-1.552 1.556 0 .858.695 1.555 1.552 1.555.856 0 1.552-.697 1.552-1.555 0-.86-.696-1.556-1.552-1.556zM13.966 8.223h-7.31c-.553 0-1 .448-1 1v9.407c0 .553.447 1 1 1h7.31c.552 0 1-.447 1-1V9.223c0-.552-.448-1-1-1zm11.38 0h-7.31c-.553 0-1 .448-1 1v9.407c0 .553.447 1 1 1h7.31c.552 0 1-.447 1-1V9.223c0-.552-.448-1-1-1zm-23.312 0c.57 0 1.034.464 1.034 1.037v3.11c0 .573-.463 1.038-1.034 1.038-.57 0-1.034-.465-1.034-1.037V9.26c0-.573.463-1.037 1.034-1.037zm27.932 0c.57 0 1.034.464 1.034 1.037v3.11c0 .573-.463 1.038-1.034 1.038-.57 0-1.034-.465-1.034-1.037V9.26c0-.573.463-1.037 1.034-1.037zm-4.62-4.15H6.656c-.553 0-1 .448-1 1v.075c0 .552.447 1 1 1h18.69c.552 0 1-.448 1-1v-.075c0-.552-.448-1-1-1z"></path>
</svg>
