<svg width="25" height="26" viewBox="0 0 25 26" fill="none" xmlns="http://www.w3.org/2000/svg">
    <path d="M22.7141 10.9596H21.875V10.9163H12.5V15.083H18.387C17.5282 17.5085 15.2204 19.2497 12.5 19.2497C9.04848 19.2497 6.25004 16.4512 6.25004 12.9997C6.25004 9.54811 9.04848 6.74967 12.5 6.74967C14.0933 6.74967 15.5427 7.35072 16.6464 8.33249L19.5927 5.38613C17.7323 3.65228 15.2438 2.58301 12.5 2.58301C6.74744 2.58301 2.08337 7.24707 2.08337 12.9997C2.08337 18.7523 6.74744 23.4163 12.5 23.4163C18.2526 23.4163 22.9167 18.7523 22.9167 12.9997C22.9167 12.3012 22.8448 11.6195 22.7141 10.9596Z" fill="#FFC107"/>
    <path d="M3.28442 8.15124L6.70682 10.6611C7.63286 8.36842 9.87557 6.74967 12.5 6.74967C14.0933 6.74967 15.5428 7.35072 16.6464 8.33249L19.5928 5.38613C17.7323 3.65228 15.2438 2.58301 12.5 2.58301C8.49901 2.58301 5.02922 4.84186 3.28442 8.15124Z" fill="#FF3D00"/>
    <path d="M12.5 23.4165C15.1906 23.4165 17.6354 22.3868 19.4839 20.7124L16.2599 17.9842C15.1789 18.8063 13.8581 19.2509 12.5 19.2499C9.79062 19.2499 7.4901 17.5223 6.62344 15.1113L3.22656 17.7285C4.95052 21.102 8.45156 23.4165 12.5 23.4165Z" fill="#4CAF50"/>
    <path d="M22.7141 10.9602H21.875V10.917H12.5V15.0837H18.387C17.9761 16.238 17.2361 17.2468 16.2583 17.9852L16.2599 17.9842L19.4839 20.7123C19.2557 20.9196 22.9167 18.2087 22.9167 13.0003C22.9167 12.3019 22.8448 11.6201 22.7141 10.9602Z" fill="#1976D2"/>
</svg>
