<svg width="21" height="21" viewBox="0 0 21 21" fill="none" xmlns="http://www.w3.org/2000/svg">
    <path d="M10.5 7.875C9.80381 7.875 9.13613 8.15156 8.64384 8.64384C8.15156 9.13613 7.875 9.80381 7.875 10.5C7.875 11.1962 8.15156 11.8639 8.64384 12.3562C9.13613 12.8484 9.80381 13.125 10.5 13.125C11.1962 13.125 11.8639 12.8484 12.3562 12.3562C12.8484 11.8639 13.125 11.1962 13.125 10.5C13.125 9.80381 12.8484 9.13613 12.3562 8.64384C11.8639 8.15156 11.1962 7.875 10.5 7.875ZM10.5 6.125C11.6603 6.125 12.7731 6.58594 13.5936 7.40641C14.4141 8.22688 14.875 9.33968 14.875 10.5C14.875 11.6603 14.4141 12.7731 13.5936 13.5936C12.7731 14.4141 11.6603 14.875 10.5 14.875C9.33968 14.875 8.22688 14.4141 7.40641 13.5936C6.58594 12.7731 6.125 11.6603 6.125 10.5C6.125 9.33968 6.58594 8.22688 7.40641 7.40641C8.22688 6.58594 9.33968 6.125 10.5 6.125V6.125ZM16.1875 5.90625C16.1875 6.19633 16.0723 6.47453 15.8671 6.67965C15.662 6.88477 15.3838 7 15.0938 7C14.8037 7 14.5255 6.88477 14.3204 6.67965C14.1152 6.47453 14 6.19633 14 5.90625C14 5.61617 14.1152 5.33797 14.3204 5.13285C14.5255 4.92773 14.8037 4.8125 15.0938 4.8125C15.3838 4.8125 15.662 4.92773 15.8671 5.13285C16.0723 5.33797 16.1875 5.61617 16.1875 5.90625V5.90625ZM10.5 3.5C8.33525 3.5 7.98175 3.50613 6.97463 3.55075C6.28863 3.58313 5.82837 3.675 5.40137 3.84125C5.04404 3.97245 4.72099 4.18273 4.45637 4.45637C4.18251 4.72097 3.97193 5.04401 3.84037 5.40137C3.67412 5.83012 3.58225 6.2895 3.55075 6.97463C3.50525 7.94063 3.5 8.27837 3.5 10.5C3.5 12.6647 3.50613 13.0182 3.55075 14.0254C3.58313 14.7105 3.675 15.1716 3.84037 15.5978C3.98912 15.9784 4.16413 16.2523 4.45463 16.5428C4.7495 16.8368 5.02337 17.0126 5.39963 17.1579C5.83187 17.325 6.29213 17.4177 6.97463 17.4492C7.94063 17.4947 8.27837 17.5 10.5 17.5C12.6647 17.5 13.0182 17.4939 14.0254 17.4492C14.7096 17.4169 15.1708 17.325 15.5978 17.1596C15.9545 17.0278 16.2774 16.8179 16.5428 16.5454C16.8376 16.2505 17.0135 15.9766 17.1588 15.6004C17.325 15.169 17.4177 14.7079 17.4492 14.0254C17.4947 13.0594 17.5 12.7216 17.5 10.5C17.5 8.33525 17.4939 7.98175 17.4492 6.97463C17.4169 6.29038 17.325 5.82837 17.1588 5.40137C17.0269 5.04438 16.8167 4.72147 16.5436 4.45637C16.2791 4.18237 15.9561 3.97177 15.5986 3.84037C15.1699 3.67412 14.7096 3.58225 14.0254 3.55075C13.0594 3.50525 12.7216 3.5 10.5 3.5ZM10.5 1.75C12.8774 1.75 13.174 1.75875 14.1067 1.8025C15.0386 1.84625 15.673 1.99238 16.2312 2.20938C16.8087 2.43163 17.2953 2.73262 17.7818 3.21825C18.2267 3.65566 18.571 4.18477 18.7906 4.76875C19.0068 5.32612 19.1538 5.96137 19.1975 6.89325C19.2386 7.826 19.25 8.12262 19.25 10.5C19.25 12.8774 19.2413 13.174 19.1975 14.1067C19.1538 15.0386 19.0068 15.673 18.7906 16.2312C18.5716 16.8156 18.2272 17.3448 17.7818 17.7818C17.3442 18.2265 16.8151 18.5708 16.2312 18.7906C15.6739 19.0068 15.0386 19.1538 14.1067 19.1975C13.174 19.2386 12.8774 19.25 10.5 19.25C8.12262 19.25 7.826 19.2413 6.89325 19.1975C5.96137 19.1538 5.327 19.0068 4.76875 18.7906C4.18454 18.5714 3.65534 18.2271 3.21825 17.7818C2.77323 17.3444 2.42894 16.8153 2.20938 16.2312C1.99238 15.6739 1.84625 15.0386 1.8025 14.1067C1.76137 13.174 1.75 12.8774 1.75 10.5C1.75 8.12262 1.75875 7.826 1.8025 6.89325C1.84625 5.9605 1.99238 5.327 2.20938 4.76875C2.42833 4.18441 2.7727 3.65516 3.21825 3.21825C3.65546 2.77308 4.18462 2.42876 4.76875 2.20938C5.327 1.99238 5.9605 1.84625 6.89325 1.8025C7.826 1.76137 8.12262 1.75 10.5 1.75Z" fill="#B5B5B5"/>
</svg>
