<svg width="21" height="21" viewBox="0 0 21 21" fill="none" xmlns="http://www.w3.org/2000/svg">
    <path d="M10.5 19.25C5.66738 19.25 1.75 15.3326 1.75 10.5C1.75 5.66738 5.66738 1.75 10.5 1.75C15.3326 1.75 19.25 5.66738 19.25 10.5C19.25 15.3326 15.3326 19.25 10.5 19.25ZM7.77875 11.5238L7.79012 11.5176L8.55137 14.0289C8.64937 14.301 8.78412 14.35 8.94775 14.3273C9.11225 14.3054 9.19887 14.217 9.3065 14.1137L10.346 13.1093L12.5772 14.7613C12.985 14.9861 13.2781 14.8697 13.3796 14.3832L14.8295 7.539C14.9896 6.902 14.7096 6.6465 14.2153 6.8495L5.69888 10.1395C5.11788 10.3723 5.12138 10.6977 5.59388 10.8421L7.77875 11.5246V11.5238Z" fill="#B5B5B5"/>
</svg>
