<svg width="100%" height="100%" viewBox="0 0 32 32" xmlns="http://www.w3.org/2000/svg" fit="" preserveAspectRatio="xMidYMid meet" focusable="false">
    <path d="m23.036 30 1.145 2.001h-2.29l-1.145-2h2.29zm-11.46 0-1.144 2h-2.29l1.144-2h2.29zM20.067-.002c1.858 0 3.369 1.524 3.369 3.4h-1.983c0-.392-.161-.746-.419-.999L18.974 6h4.171c1.05 0 1.9.858 1.906 1.917L26 27.082c0 1.06-.851 1.918-1.9 1.918H7.9C6.85 29 6 28.14 6 27.082l.95-19.165c0-1.06.85-1.918 1.9-1.918h4.171L10.962 2.4a1.399 1.399 0 0 0-.418.998H8.56c0-1.875 1.512-3.4 3.37-3.4zM9.053 24c-.821 0-1.487.672-1.487 1.5S8.232 27 9.053 27c.82 0 1.487-.672 1.487-1.5S9.874 24 9.053 24zm13.887 0c-.821 0-1.487.672-1.487 1.5s.666 1.5 1.487 1.5c.82 0 1.487-.672 1.487-1.5S23.76 24 22.94 24zm-.545-12H9.596a1 1 0 0 0-.999.95l-.395 8.001a1 1 0 0 0 1 1.05h13.614l.025-.002a1 1 0 0 0 .949-1.048l-.396-8a1 1 0 0 0-.999-.951zm-.202-4.083H9.796a1 1 0 0 0-.998.95l-.005.091A.992.992 0 0 0 9.784 10h12.471a.992.992 0 0 0 .941-1.04l-.005-.092a1 1 0 0 0-.998-.95zM18.973 2h-5.957l2.29 4h1.377l2.29-4z" fill="currentColor" fill-rule="evenodd"></path>
</svg>
