<svg width="21" height="21" viewBox="0 0 21 21" fill="none" xmlns="http://www.w3.org/2000/svg">
    <path d="M19.3918 4.94906C18.7238 5.24454 18.0154 5.4386 17.29 5.52481C18.0545 5.06756 18.6268 4.34795 18.9 3.50006C18.1825 3.92706 17.3959 4.22631 16.576 4.38818C16.0253 3.79894 15.2953 3.40815 14.4996 3.27657C13.7039 3.14499 12.887 3.27999 12.1759 3.66058C11.4648 4.04117 10.8994 4.64603 10.5675 5.38113C10.2356 6.11622 10.1559 6.94037 10.3408 7.72543C8.88574 7.65251 7.46231 7.27439 6.16289 6.61564C4.86348 5.95689 3.71713 5.03222 2.79827 3.90168C2.47302 4.46033 2.3021 5.09538 2.30302 5.74181C2.30302 7.01056 2.94877 8.13143 3.93052 8.78768C3.34952 8.76939 2.78132 8.61249 2.27327 8.33006V8.37556C2.27344 9.22055 2.56584 10.0395 3.10088 10.6935C3.63593 11.3475 4.38069 11.7963 5.20889 11.9639C4.66955 12.1101 4.10403 12.1316 3.55514 12.0269C3.78865 12.7543 4.24377 13.3904 4.85678 13.8462C5.4698 14.302 6.21 14.5546 6.97377 14.5688C6.21469 15.165 5.34555 15.6057 4.41604 15.8657C3.48653 16.1257 2.51488 16.2 1.55664 16.0843C3.22938 17.1601 5.1766 17.7312 7.16539 17.7293C13.8968 17.7293 17.5779 12.1529 17.5779 7.31681C17.5779 7.15931 17.5735 7.00006 17.5665 6.84431C18.283 6.32645 18.9014 5.68495 19.3926 4.94993L19.3918 4.94906Z" fill="#B5B5B5"/>
</svg>
