<svg width="21" height="21" viewBox="0 0 21 21" fill="none" xmlns="http://www.w3.org/2000/svg">
    <path d="M18.8501 5.68575C19.25 7.245 19.25 10.5 19.25 10.5C19.25 10.5 19.25 13.755 18.8501 15.3143C18.6279 16.1761 17.9777 16.8543 17.1544 17.0835C15.659 17.5 10.5 17.5 10.5 17.5C10.5 17.5 5.34362 17.5 3.84562 17.0835C3.01875 16.8508 2.3695 16.1735 2.14988 15.3143C1.75 13.755 1.75 10.5 1.75 10.5C1.75 10.5 1.75 7.245 2.14988 5.68575C2.37213 4.82388 3.02225 4.14575 3.84562 3.9165C5.34362 3.5 10.5 3.5 10.5 3.5C10.5 3.5 15.659 3.5 17.1544 3.9165C17.9812 4.14925 18.6305 4.8265 18.8501 5.68575V5.68575ZM8.75 13.5625L14 10.5L8.75 7.4375V13.5625Z" fill="#B5B5B5"/>
</svg>
